<?xml version="1.0" standalone="no"?><!DOCTYPE svg PUBLIC "-//W3C//DTD SVG 1.1//EN" "http://www.w3.org/Graphics/SVG/1.1/DTD/svg11.dtd"><svg t="1521699977824" class="icon" style="" viewBox="0 0 1024 1024" version="1.1" xmlns="http://www.w3.org/2000/svg" p-id="5052" xmlns:xlink="http://www.w3.org/1999/xlink" width="200" height="200"><defs><style type="text/css"></style></defs><path d="M512 64C265.6 64 64 265.6 64 512s201.6 448 448 448 448-201.6 448-448S758.4 64 512 64z m0 832C300.8 896 128 723.2 128 512S300.8 128 512 128s384 172.8 384 384-172.8 384-384 384z" fill="#666666" p-id="5053"></path><path d="M672 608h-288c-19.2 0-32-9.6-32-19.2v-89.6c0-6.4 12.8-19.2 32-19.2h288c12.8 0 25.6-9.6 32-22.4 3.2-12.8 0-28.8-12.8-35.2l-128-96c-12.8-9.6-35.2-6.4-44.8 6.4-9.6 12.8-6.4 35.2 6.4 44.8L576 416h-192c-54.4 0-96 35.2-96 83.2v89.6c0 44.8 41.6 83.2 96 83.2h288c19.2 0 32-12.8 32-32s-16-32-32-32z" fill="#666666" p-id="5054"></path></svg>